<?xml version="1.0" encoding="UTF-8" standalone="no"?>
<svg
   xmlns:dc="http://purl.org/dc/elements/1.1/"
   xmlns:cc="http://creativecommons.org/ns#"
   xmlns:rdf="http://www.w3.org/1999/02/22-rdf-syntax-ns#"
   xmlns:svg="http://www.w3.org/2000/svg"
   xmlns="http://www.w3.org/2000/svg"
   height="512"
   width="512"
   id="svg20"
   version="1.1"
   viewBox="0 0 512 512">
  <metadata
     id="metadata26">
    <rdf:RDF>
      <cc:Work
         rdf:about="">
        <dc:format>image/svg+xml</dc:format>
        <dc:type
           rdf:resource="http://purl.org/dc/dcmitype/StillImage" />
        <dc:title></dc:title>
      </cc:Work>
    </rdf:RDF>
  </metadata>
  <defs
     id="defs24" />
  <g
     transform="translate(-27.393227,38.739616)"
     style="stroke:#000000"
     id="g18">
    <g
       style="fill:#ffffff"
       id="g10">
      <g
         style="stroke-width:11.30000019;stroke-linecap:round;stroke-miterlimit:0"
         id="g6"
         stroke-miterlimit="0">
        <path
           id="path2"
           d="M 424.96,328.69 A 172.76,172.76 0 1 1 384.115,68.59" />
        <path
           id="path4"
           d="m 195.74,131.37 a 128.63,128.49 0 1 1 99.016,210.54" />
      </g>
      <path
         style="fill-rule:evenodd;stroke-width:5.8829999"
         id="path8"
         d="m 450.83,139.1 0.5103,-44.028 c 0,0 -0.76544,-8.8056 6.3787,-8.8056 6.889,0 5.6132,8.8056 5.6132,8.8056 l -0.2551,44.028 c 0,0 -0.76544,4.4028 5.1029,4.6618 5.8684,0.25899 4.8478,-4.9208 4.8478,-4.9208 L 472.7727,95.59 c 0,0 -0.51028,-9.3236 5.6132,-9.3236 6.12348,0 4.8478,9.5826 4.8478,9.5826 v 44.287 c 0,0 1.9136,3.8201 6.1235,3.6258 4.2099,-0.19423 4.9116,-3.6906 5.0392,-3.5935 l 0.5741,-44.06 c 0,0 0,-9.3236 5.3581,-9.5826 5.3581,-0.25899 5.3581,9.5826 5.3581,9.5826 l -0.2552,46.618 c 0,0 2.857,37.662 -14.587,40.195 -15.44,2.242 6.0918,133.94 0.3352,137.86 -5.4456,3.7071 -6.8089,4.3584 -11.912,4.6174 -5.1029,0.25897 -10.095,-1.5978 -13.355,-5.3499 -6.0064,-6.9126 13.083,-136.23 1.5384,-137.9 -15.044,-2.1796 -16.876,-43.311 -16.621,-43.052 z" />
    </g>
    <g
       style="stroke-width:5.8829999"
       id="g16">
      <path
         style="fill:none;stroke-linecap:round"
         id="path12"
         d="m 81.745,112.33 a 16.92,33.367 0 1 1 0.90306,66.483" />
      <path
         style="fill:#ffffff;fill-rule:evenodd"
         id="path14"
         d="m 53.905,111.24 c 6.889,-13.208 20.922,-15.372 27.046,-15.372 6.1235,0 22.619,1.4733 27.301,16.408 4.7411,15.125 2.6019,84.28 -14.842,86.813 -15.44,2.242 6.0918,133.94 0.3352,137.86 -5.4456,3.7071 -6.8089,4.3584 -11.912,4.6174 -5.1029,0.259 -9.5899,-0.58762 -12.85,-4.3398 -6.0064,-6.9126 12.578,-135.72 1.0333,-137.4 -15.044,-2.1796 -23,-75.387 -16.11,-88.595 z" />
    </g>
  </g>
  <flowRoot
     transform="translate(-19.958339,-36.526277)"
     style="font-style:normal;font-variant:normal;font-weight:normal;font-stretch:normal;font-size:40px;line-height:1.25;font-family:FreeSans;-inkscape-font-specification:FreeSans;letter-spacing:0px;word-spacing:0px;fill:#000000;fill-opacity:1;stroke:none"
     id="flowRoot841"
     xml:space="preserve"><flowRegion
       style="font-style:normal;font-variant:normal;font-weight:normal;font-stretch:normal;font-family:FreeSans;-inkscape-font-specification:FreeSans"
       id="flowRegion843"><rect
         style="font-style:normal;font-variant:normal;font-weight:normal;font-stretch:normal;font-family:FreeSans;-inkscape-font-specification:FreeSans"
         y="181.46573"
         x="230.4003"
         height="228.36137"
         width="150.88161"
         id="rect845" /></flowRegion><flowPara
       style="font-style:normal;font-variant:normal;font-weight:normal;font-stretch:normal;font-size:192px;font-family:FreeSans;-inkscape-font-specification:FreeSans"
       id="flowPara847">1</flowPara></flowRoot></svg>
