<?xml version="1.0" encoding="UTF-8"?>
<svg class="bi bi-check-square" width="16" height="16" fill="currentColor" version="1.1" viewBox="0 0 16 16" xmlns="http://www.w3.org/2000/svg">
 <path d="M14 1a1 1 0 0 1 1 1v12a1 1 0 0 1-1 1H2a1 1 0 0 1-1-1V2a1 1 0 0 1 1-1h12zM2 0a2 2 0 0 0-2 2v12a2 2 0 0 0 2 2h12a2 2 0 0 0 2-2V2a2 2 0 0 0-2-2H2z"/>
 <path d="m11.448 2.7166a0.98885 1.3224 0 0 1 1.4121 1.8514l-5.2633 8.7984a0.98885 1.3224 0 0 1-1.4239 0.03527l-3.4873-4.6654a0.98885 1.3224 0 1 1 1.3976-1.869l2.7609 3.6904 4.579-7.8022a0.30984 0.41435 0 0 1 0.02637-0.038792z" fill="#009d00" stroke-width="1.5247"/>
</svg>
