<?xml version="1.0" encoding="UTF-8"?>
<svg class="bi bi-card-list" width="16" height="16" fill="currentColor" version="1.1" viewBox="0 0 16 16" xmlns="http://www.w3.org/2000/svg">
 <path d="m12.887 3a0.37589 0.5 0 0 1 0.37589 0.5v9a0.37589 0.5 0 0 1-0.37589 0.5h-9.7732a0.37589 0.5 0 0 1-0.37589-0.5v-9a0.37589 0.5 0 0 1 0.37589-0.5zm-9.7732-1a1.1277 1.5 0 0 0-1.1277 1.5v9a1.1277 1.5 0 0 0 1.1277 1.5h9.7732a1.1277 1.5 0 0 0 1.1277-1.5v-9a1.1277 1.5 0 0 0-1.1277-1.5z" stroke-width=".86706"/>
 <path d="m5.3936 8a0.43439 0.43439 0 0 1 0.43439-0.43439h6.0815a0.43439 0.43439 0 0 1 0 0.86879h-6.0815a0.43439 0.43439 0 0 1-0.43439-0.43439zm0-2.172a0.43439 0.43439 0 0 1 0.43439-0.43439h6.0815a0.43439 0.43439 0 0 1 0 0.86879h-6.0815a0.43439 0.43439 0 0 1-0.43439-0.43439zm0 4.3439a0.43439 0.43439 0 0 1 0.43439-0.43439h6.0815a0.43439 0.43439 0 0 1 0 0.86879h-6.0815a0.43439 0.43439 0 0 1-0.43439-0.43439zm-0.86879-4.3439a0.43439 0.43439 0 1 1-0.86879 0 0.43439 0.43439 0 0 1 0.86879 0zm0 2.172a0.43439 0.43439 0 1 1-0.86879 0 0.43439 0.43439 0 0 1 0.86879 0zm0 2.172a0.43439 0.43439 0 1 1-0.86879 0 0.43439 0.43439 0 0 1 0.86879 0z" stroke-width=".86879"/>
 <circle cx="12.551" cy="12.417" r="4.264" fill="#fff" stroke-width=".97258"/>
 <circle cx="12.561" cy="12.533" r="3.3772" fill="#000" stroke-width=".89736"/>
 <rect transform="rotate(90)" x="11.909" y="-15.195" width="1.1547" height="5.2314" fill="#fff" stroke-width="1.1737"/>
</svg>
