<?xml version="1.0" encoding="UTF-8"?>
<svg viewBox="0 0 369.43045 523.61932" xmlns="http://www.w3.org/2000/svg" xmlns:xlink="http://www.w3.org/1999/xlink">
 <defs>
  <linearGradient id="a">
   <stop stop-color="#a5a5a5" offset="0"/>
   <stop offset="1"/>
  </linearGradient>
  <linearGradient id="f" x1="175.57" x2="188.81" gradientUnits="userSpaceOnUse">
   <stop stop-color="#ffb142" offset="0"/>
   <stop stop-color="#c87600" offset="1"/>
  </linearGradient>
  <radialGradient id="b" cx="414.68" cy="-8.8805" r="123.55" gradientTransform="matrix(-5.8291e-6 .89419 -1.9479 1.1251e-8 165.73 -111.03)" gradientUnits="userSpaceOnUse">
   <stop stop-color="#ffb142" offset="0"/>
   <stop stop-color="#ffb141" offset=".8868"/>
   <stop stop-color="#c87600" offset="1"/>
  </radialGradient>
  <radialGradient id="e" cx="347.68" cy="652.28" r="59.255" gradientTransform="matrix(2.8422e-8 -2.2818 -2.0268 0 1591.4 910.48)" gradientUnits="userSpaceOnUse" xlink:href="#a"/>
  <radialGradient id="d" cx="355.12" cy="615.6" r="59.255" gradientTransform="matrix(-2.8422e-8 -2.2818 2.0268 0 -1222 910.48)" gradientUnits="userSpaceOnUse" xlink:href="#a"/>
  <radialGradient id="c" cx="488.95" cy="582.85" r="167.56" gradientTransform="matrix(0 -1.4798 1.3255 -3.8491e-6 -632.49 789.53)" gradientUnits="userSpaceOnUse" xlink:href="#a"/>
 </defs>
 <path d="m148.24 460.66c-48.083 4.9497-103.23 43.858-81.312 52.344s85.542 12.024 97.562 2.125c6.177-5.087 17.229-17.827 18.531-29.781 1.3042 11.953 12.324 24.695 18.5 29.781 12.021 9.8995 75.673 6.3603 97.594-2.125s-33.229-47.394-81.312-52.344c-24.76 2.3865-33.666 10.706-34.781 20.25-1.1158-9.5442-10.021-17.864-34.781-20.25z" fill="url(#b)" fill-rule="evenodd" stroke="#000" stroke-width="5"/>
 <path d="m148.25 460.67c-23.6 2.4294-48.881 13.04-65.938 24.219 25.832 11.947 57.418 19.309 91.656 20.156 4.3873-5.7724 8.3176-12.85 9.0625-19.688 0.73903 6.7733 4.5772 13.788 8.9062 19.531 33.676-1.4258 64.607-9.1457 89.781-21.312-16.995-10.691-41.222-20.571-63.906-22.906-24.76 2.3865-33.666 10.706-34.781 20.25-1.1158-9.5442-10.021-17.864-34.781-20.25z" fill-opacity=".3137" fill-rule="evenodd"/>
 <path d="m346.17 321.58a165.56 165.56 0 0 1 -331.13 0 165.56 165.56 0 1 1 331.13 0z" fill="url(#c)" stroke="#000" stroke-linecap="round" stroke-width="5"/>
 <path d="m146.62 211.41c-22.935 0-41.562 21.434-41.562 47.844s18.628 47.844 41.562 47.844c13.478 0 25.439-7.4105 33.031-18.875 7.5922 11.473 19.579 18.875 33.062 18.875 22.935 0 41.562-21.434 41.562-47.844s-18.628-47.844-41.562-47.844c-13.482 0-25.47 7.4045-33.062 18.875-7.5928-11.462-19.555-18.875-33.031-18.875z" fill="#fff" stroke="#000" stroke-linecap="round" stroke-width="5"/>
 <path d="m262.45 404.36a80.264 80.264 0 1 1 -160.53 0 80.264 80.264 0 1 1 160.53 0z" fill="#fff" stroke="#000" stroke-linecap="round" stroke-width="5"/>
 <path d="m339.66 275.55c0.33607 4.3048 0.53125 8.6406 0.53125 13.031 0 91.391-74.202 165.56-165.59 165.56-75.42 0-139.07-50.513-159.03-119.53 6.6593 85.301 78.03 152.53 165.03 152.53 91.391 0 165.59-74.171 165.59-165.56 0-15.971-2.3048-31.416-6.5312-46.031z" fill-opacity=".3137"/>
 <path d="m181.64 293.93c-14.479 0-30.217 13.186-29.588 21.514s25.81 43.029 31.476 43.029 27.699-34.006 27.069-43.723-19.515-21.514-28.958-20.82z" fill-opacity=".3137" fill-rule="evenodd"/>
 <path d="m172.38 267.68a10.387 10.387 0 1 1 -20.774 0 10.387 10.387 0 1 1 20.774 0z" stroke="#000" stroke-linecap="round" stroke-width="5"/>
 <path d="m209.57 267.68a10.387 10.387 0 1 1 -20.774 0 10.387 10.387 0 1 1 20.774 0z" stroke="#000" stroke-linecap="round" stroke-width="5"/>
 <path d="m55.737 284.56c48.111 17.3-14.163 94.143 37.819 161.19 9.6084 12.393-57.868 2.0908-81.723-66.585-23.198-66.786-1.1324-107.54 43.904-94.607z" fill="#fff" fill-rule="evenodd" stroke="#000" stroke-width="5"/>
 <path d="m55.737 284.56c48.111 17.3-42.588 102.12 37.819 161.19 22.626 16.622-57.868 2.0908-81.723-66.585-23.198-66.786-1.1324-107.54 43.904-94.607z" fill="url(#d)" fill-rule="evenodd" stroke="#000" stroke-width="5"/>
 <path d="m313.69 284.56c-48.111 17.3 14.163 94.143-37.819 161.19-9.6084 12.393 57.868 2.0908 81.723-66.585 23.198-66.786 1.1324-107.54-43.904-94.607z" fill="#fff" fill-rule="evenodd" stroke="#000" stroke-width="5"/>
 <path d="m125.05 463.9c-5.5016 0-10.214 5.3348-12.318 12.969 17.975 4.808 37.724 7.6125 58.479 7.9946-0.28273-11.64-6.1994-20.964-13.472-20.964-3.1276 0-6.0009 1.7316-8.2907 4.6191-2.2898-2.8875-5.1631-4.6191-8.2907-4.6191-3.0186 0-5.8045 1.6154-8.0538 4.323-2.2494-2.7076-5.0354-4.323-8.0538-4.323zm72.958 0c-7.2543 0-13.162 9.2766-13.472 20.875 20.732-0.66743 40.379-3.7745 58.213-8.8533-2.224-7.1211-6.7814-12.022-12.051-12.022-3.1276 0-6.0008 1.7316-8.2907 4.6191-2.2898-2.8875-5.1631-4.6191-8.2907-4.6191-3.0186 0-5.8045 1.6154-8.0538 4.323-2.2494-2.7076-5.0353-4.323-8.0538-4.323z" fill-opacity=".3137"/>
 <path d="m253.61 397.3c-25.109-4.6652-2.1294 20.496-5.9794 29.593-15.22-7.4838-9.4208 17.292-16.303 24.175-13.041-0.69746-15.077 12.453-24.175 16.303-10.993-6.0988-19.098 5.9794-29.593 5.9794s-16.706-11.605-29.593-5.9794c-9.0976-3.8501-11.133-16.527-24.175-16.303-6.8826-6.8826-5.8208-33.08-16.303-24.175-3.8501-9.0976 13.918-36.153-5.9794-29.593 0-10.495 21.08-29.971 5.9794-29.593 3.8501-9.0975 23.16-15.871 16.303-24.175 13.765-13.765 32.778-22.283 53.768-22.283s40.003 8.5176 53.768 22.283c-10.173 4.9875 12.453 15.077 16.303 24.175-16.995-0.85124 5.9794 19.098 5.9794 29.593z" fill="#fff" stroke="#000" stroke-linecap="round" stroke-linejoin="round" stroke-width="4.7375"/>
 <path d="m30.827 257.41c2.5864-6.9283 5.1668-13.53 9.0273-21.541l37.386 74.525c5.6698 10.078 7.4306 9.2684 17.541 12.856 50.79 14.708 100.26 29.059 180.01-4.8457 11.919-40.895 29.807-59.356 48.538-78.158 3.7324 6.5598 6.1517 14.376 6.9261 17.904-14.485 17.383-29.012 29.777-39.656 73.916 5.5407 25.71 9.4487 72.755-13.876 129.67-58.155 30.972-127.34 35.165-195.41-1.2839-13.762-37.787-25.716-99.702-22.506-138.95z" fill="#454837" stroke="#000" stroke-linecap="round" stroke-linejoin="round" stroke-width="4.7375"/>
 <path d="m293.03 216.91c-58.555-68.507-160.82-58.58-236.17 2.5974 78.831-38.794 159.82-41.474 236.17-2.5974z" fill-opacity=".3137"/>
 <path d="m83.554 350.55c58.205 15.587 125.14 20.336 184.5-0.52473 5.5565 32.267-12.98 92.315-18.628 104.67-54.551 18.259-91.63 18.868-146.72 1.5742-9.4446-32.742-25.768-72.894-19.153-105.72z" fill="#ececec" stroke="#000" stroke-linecap="round" stroke-linejoin="round" stroke-width="5.1477"/>
 <path d="m108.78 288.76c-3.3131 0.157-4.3094 8.3336-1.4213 16.345 1.7939 0.27136 3.6013 0.78084 5.389 1.5397-7.1752-2.8857-16.345-1.2339-22.948 5.9812-13.817 17.069-37.019 63.518-30.498 134.07 0.06538 0.70968 0.13521 1.4176 0.20722 2.1319 67.552 46.802 134.5 51.617 213.9 13.354-0.0625-2.5862 1.5747-12.056 4.0269-24.902l6.1588-31.386c9.0622-45.709 20.236-102.24 15.723-102.24-6.3657 2.1553-25.956-13.059-22.266-1.3075 1.3798 4.3948-6.001 7.7706-4.8719 12.439 7.0256 29.048 8.3031 62.424-7.2976 88.09l-11.104-1.7766-20.135-3.2275c-4.7266-0.84451-5.1796 1.0534-5.6555 3.8789l-96.202-12.969c-0.55174-9.3356-9.585-18.623-21.941-19.276 0.49621-1.8131 0.97783-3.6325 1.51-5.4482 0.1463-0.49848 0.25403-0.99033 0.41463-1.4806 2.3748-7.2624 5.1994-16.299 8.3203-24.961 0.16202-0.44969 0.34015-0.88507 0.50331-1.3325 2.2688-6.187 4.5516-10.061 2.813-17.055-1.1033-4.5334-3.5716-8.0542-6.7806-10.423 0.80291 0.56178 1.5982 1.1668 2.3688 1.895 10.245-0.38062 20.743-9.9096 3.938-11.37 4.0513-11.158-6.5231-8.7662-8.3499-5.0336-2.3119-4.0129-4.2976-5.6085-5.8035-5.537zm-1.8358 92.145c2.3309 1.5584 5.1467 5.5592 4.5302 9.564l-0.62175 3.9972c-0.70656 4.3532-5.3037 7.4724-7.965 7.8762-0.0464 9e-3 -0.1011-9e-3 -0.1481 0 1.0843-6.9828 2.5043-14.155 4.2046-21.437zm20.845 24.931 96.616 18.328c-0.42069 3.0734 1.3194 4.8207 4.6782 5.3594l10.511 1.6878c-33.012 23.05-102.14 28.177-144.59 0.47281 0.07012-6.2965 0.50152-13.017 1.2733-20.016l6.2286 2.192c10.398 2.9044 20.506-1.2027 25.287-8.0242z" fill-opacity=".3137"/>
 <g transform="matrix(.94751 0 0 .94751 -2191.2 -820.57)">
  <path d="m2438.9 1022.8 128.67-22.113c13.22 27.846 34.539 54.577 45.204 68.969-68.687-41.434-172.66-32.366-224.98 6.8826 5.3958-22.619 24.67-43.533 51.103-53.739z" fill="#fff"/>
  <path d="m2432.9 1027c-2.2205-13.554 3.8864-25.437 7.3257-12.063 9.2745 15.039-40.608 37.532 16.156 33.23-1.6015-1.8927-9.2242 1.0398-9.2539 1.037 2.0394 0.7876 16.705-1.9488 19.939-18.178 1.9-8.8525 13.689-7.4436 14.89 3.144 2.4118 11.752-14.707 11.393-21.216 12.694-17.055-0.4615-61.262 15.81-74.638 29.417 2.1716-17.347 32.436-29.488 29.352-54.011z" fill="#dbdbdb"/>
  <path d="m2414.9 1020 161.78-13.07c11.082 22.996 11.453 39.168 45.814 70.002-25.504-28.214-153.78-59.71-241.46 3.1523 23.192-28.01 36.058-48.113 33.87-60.084z" fill="none" stroke="#000" stroke-linecap="round" stroke-linejoin="round" stroke-width="5"/>
  <path d="m2433.3 916.73c50.135-77.575 178.66-52.776 153.82 11.182 72.641 16.226 75.917 140.31-50.099 90.251-21.267 7.4492-42.423 15.132-74.571-0.2298-116.81 51.138-161.89-117.55-29.151-101.2z" fill="#fff"/>
  <path d="m2484.8 877.6c-15.78 12.592-22.408 20.931-32.236 38.715-1.9401 3.6388-1.5491 4.351-5.8534 4.1313-5.5472-0.2909-9.4616-1.4726-11.988-1.9455 13.787-14.147 20.582-32.121 50.078-40.901z" fill="#dbdbdb"/>
  <path d="m2341 957.83c3.037-19.526 28.995-44.633 65.07-42.138-79.864 21.354-50.01 87.058 1.2872 100.9 18.32 4.9425 40.658 2.2911 59.978-4.0443 25.92-8.681 50.686-11.253 9.9794 4.0068-40.547 15.083-96.816 22.61-122.55-6.8434-15.469-11.3-15.206-36.804-13.768-51.878z" fill="#dbdbdb"/>
  <path d="m2553.7 1015.7c-3.5217-8.0265 6.3932-8.5272 12.866-5.2371 11.644 7.3871 25.139 13.973 59.707 11.444l-32.477 7.5646c-34.188-5.0906-37.516-9.44-40.096-13.772z" fill="#dbdbdb"/>
  <path d="m2527.5 979.33c-10.109-4.5694-6.1729-10.877 1.4355-12.301 29.444-3.8966 48.457-13.483 57.402-41.421l2.5027 5.6539c-15.552 41.694-45.21 53.727-61.34 48.068z" fill="#dbdbdb"/>
  <path d="m2523.7 866.03c-32.6 0.4004-68.868 15.314-89.895 48.713-37.691-4.8091-63.821 3.0304-79.284 16.971-15.673 14.13-20.3 34.2-15.727 52.764s18.367 35.767 39.71 44.175c15.49 6.102 35.24 5.8083 57.678-0.1566-0.3119-2.8347-1.1018-3.5291-2.0426-3.2644-21.175 5.4887-39.532 5.6931-53.822 0.064-19.945-7.8573-32.951-24.035-37.274-41.582s0.064-36.334 14.617-49.453 39.402-20.815 76.956-15.72c0.8933 0.1261 1.8555-0.2853 2.2737-0.9724 20.19-33.033 55.47-47.461 86.89-47.833 4.4887-0.053 8.8794 0.1872 13.156 0.6945 17.104 2.0293 31.996 8.4406 41.225 18.267s12.982 23.046 7.6875 39.405c-0.3194 0.9829 0.5069 2.1229 1.6783 2.3153 16.989 2.9393 30.136 12.592 38.573 24.842s12.059 27.082 9.9613 39.984-9.7126 23.745-23.848 28.825c-10.43 3.7481-24.665 4.3532-43.129-0.133-5.1295-1.6222-1.7765 3.4186 1.3335 4.1292 18.004 4.0345 32.416 3.4039 43.474-0.5696 15.672-5.6319 24.193-17.889 26.446-31.742s-1.5684-29.419-10.503-42.392c-8.5771-12.455-22.022-22.493-39.331-26.093 4.7386-16.503 0.7512-30.548-8.9597-40.887-10.072-10.724-26.02-17.498-44.014-19.633-4.4982-0.5337-9.1215-0.7756-13.832-0.7177z"/>
 </g>
 <path d="m45.915 368.05c-0.83826 0.16107-1.3956 0.34726-1.5198 0.56338-0.42278 0.72826 6.3525 1.321 10.745 2.0961 2.2398 0.39521 4.5919 0.76095 6.9951 1.0981 0.31827-1.3594 0.63919-2.6978 0.97679-4.017l-7.9647-0.33883c-1.8533-0.0768-6.7141 0.13019-9.2322 0.59826zm-5.2002 25.03c-0.17415 0.0332-0.25592 0.0929-0.23375 0.19566 0.20514 0.97698 7.5091 3.7358 9.8911 4.4009l7.1683 1.9994c0.13511-1.356 0.28046-2.6752 0.43671-4.0036-2.2593-0.39444-4.4655-0.78472-6.6004-1.0835-3.865-0.54056-9.4464-1.7612-10.662-1.5089z" fill-opacity=".3137"/>
 <g transform="matrix(.93048 -.17881 .17881 .93048 -2088.3 613.06)">
  <path d="m2263.3057,168.07523c-.9009,0-1.5156.082-1.6874.2812-.5833.6706 6.3208,2.6344 10.7187,4.3125 2.2427.8557 4.6077,1.7033 7.0313,2.5313 .6006-1.3455 1.1998-2.6687 1.8124-3.9688l-8.1874-1.9375c-1.9056-.44841-6.9847-1.2023-9.6876-1.2187zm-10.375,24.90619c-.1871-4e-005-.2837.045-.2812.1563 .018,1.05341 7.0386,5.3675 9.375,6.5312l7.0312,3.5c.4101-1.37849.8235-2.71679 1.25-4.0625-2.2631-.85879-4.4719-1.70269-6.625-2.4375-3.8981-1.33009-9.4398-3.7069-10.75-3.6875z" fill="#b3b3b3" stroke="#000" stroke-linecap="round" stroke-linejoin="round" stroke-width="5"/>
  <path d="m2311.9 113.97c14.132-10.518 32.701-2.8287 33.5 13.523 0.4089 7.5954-2.719 11.149-6.3027 17.109-0.2586 0.4312-0.5167 0.8639-0.7742 1.2977-4.9598 8.3558-9.6986 17.139-13.606 24.193-0.2637 0.4763-0.4723 0.9833-0.723 1.4707-13.076 25.424-22.324 51.475-26.285 73.132-2.8246 15.446-4.5515 23.938-7.6861 27.638-7.1264 10.434-24.46 12.385-33.142-0.892-5.0287-8.0489-4.2625-13.849-3.5028-22.341 0.068-0.7548 0.1388-1.5063 0.2122-2.2548 7.2945-74.424 40.59-117.94 58.31-132.88z" fill="#a40" stroke="#000" stroke-linecap="round" stroke-linejoin="round" stroke-width="5"/>
  <path d="m2335.4 140c-31.812 50.408-38.18 76.482-41.765 97.737-4.0252 55.98-25.077 32.457-19.393-7.3515 8.1178-40.827 19.426-70.599 42.695-99.534 20.07-23.403 27.668-5.6416 18.463 9.1481z" fill="#b74900"/>
  <path d="m2263.8 289.44c-0.9919 4.272 6.054 13.284 10.174 1.4521 14.042 9.5373 12.677-3.4809 5.4716-10.9-4.783-4.6867-13.935-4.6026-16.814-2.579-9.3492 6.9091-12.32 17.178 1.1689 12.027z" fill="#a40" stroke="#000" stroke-linecap="round" stroke-linejoin="round" stroke-width="5"/>
  <path d="m2341.3 99.895c2.6367-3.5045 14.069-3.8936 7.6482 6.864 17.126 4.8607 4.3521 12.672-6.3415 11.026-3.0656-4.2604-6.9682-6.7058-10.954-8.1159-2.0331-12.913 4.5372-24.557 9.6474-9.774z" fill="#a40" stroke="#000" stroke-linecap="round" stroke-linejoin="round" stroke-width="5"/>
  <path d="m2336 142.01c-1.8947 2.7172-2.9536-0.7504-5.6065-3.5259-8.2647-8.6467-11.559-9.0692-15.757-10.988-3.4919-1.5959-7.6575-1.6851-5.7627-4.4022s5.569-2.437 9.1047-0.9404c5.9025 2.4985 11.225 6.0364 15.757 10.988 2.5924 2.832 4.1592 6.1514 2.2645 8.8685z" fill="#803300"/>
  <path d="m2325.9 159.57c-2.0226 2.8927-3.1485-0.79591-5.9745-3.7466-8.8042-9.1927-12.316-9.6393-16.791-11.677-3.7217-1.6949-8.1629-1.7861-6.1403-4.6788s5.9399-2.598 9.7083-1.0088c6.2911 2.6532 11.962 6.4127 16.791 11.677 2.7615 3.011 4.4291 6.5414 2.4065 9.4342z" fill="#803300"/>
  <path d="m2317 177.66c-1.6764 3.1062-3.2192-0.4283-6.3659-3.0343-9.8032-8.1188-13.343-8.1585-18.023-9.6681-3.892-1.2555-8.3143-0.8351-6.6379-3.9413s5.6017-3.2641 9.5279-2.1189c6.5545 1.9117 12.621 4.9939 18.023 9.668 3.0895 2.6733 5.1523 5.9884 3.4759 9.0946z" fill="#803300"/>
  <path d="m2310.9 196.98c-1.2036 3.5466-3.4158 0.011-7.1325-2.3053-11.579-7.2155-15.261-6.7449-20.379-7.6728-4.2571-0.7717-8.775 0.316-7.5715-3.2306s5.251-4.2831 9.5245-3.6338c7.1345 1.0841 13.964 3.4836 20.379 7.6727 3.669 2.3959 6.383 5.6232 5.1795 9.1698z" fill="#803300"/>
  <path d="m2302 216.7c-1.3289 3.2699-3.2467-0.076-6.6579-2.3247-10.628-7.0054-14.151-6.6601-18.967-7.6522-4.0054-0.8252-8.3557 0.073-7.0268-3.1966s5.2138-3.8536 9.2412-3.1419c6.7234 1.1882 13.089 3.5929 18.966 7.6523 3.3617 2.3217 5.7725 5.3931 4.4436 8.6631z" fill="#803300"/>
  <path d="m2315.2 175.1c-7.8979-0.6704-7.037 6.4745-4 8.375 3.1539 1.4996 5.8968 3.0584 8.0626 4.7187 2.2543 1.7283 4.9072 6.9286 3.3437 11.312l-1.4375 4.0313c-1.5994 4.3712-6.9739 6.6741-9.8125 6.5625-3.0222-0.11881-6.5288-0.7833-10.344-1.8125-7.2179-2.2164-8.7005 5.2141-2.8438 8.4688l10.5 5.2187c10.199 5.0814 21.468 2.8366 27.781-3.2813l134.69 53.375 9.125-24.531-136.25-45.75c1.298-9.8648-6.3561-21.41-19.219-24.438z" fill="#b3b3b3" stroke="#000" stroke-linecap="round" stroke-linejoin="round" stroke-width="5"/>
  <g transform="matrix(1 -.00163 .00163 1 682.15 -723.11)" stroke="#000">
   <path d="m1849.1 1024.5c8.7785 3.2087 18.428-1.2748 21.636-10.053s-1.2737-18.43-10.052-21.639l-10.704-3.9123-65.744-24.03-20.225-7.3925c-5.312-2.05-5.7205 0.56339-7.043 3.966l-7.6717 20.989c-1.3428 3.3321 0.091 5.6264 3.6172 6.9156l19.738 7.2147 65.744 24.03z" fill="#af4600" stroke-width="5"/>
   <path transform="matrix(-.13043 -.04767 .04767 -.13043 2019.6 1176.5)" d="m1594.6 729.17c0 35.902-29.104 65.007-65.006 65.007s-65.007-29.104-65.007-65.007 29.104-65.007 65.007-65.007 65.006 29.104 65.006 65.007z" fill="#fff" stroke-width="36.005"/>
  </g>
  <path d="m2296.7 236.47c-1.5347 3.0948-3.3782 0.079-6.8278-1.85-10.747-6.0098-14.433-5.5272-19.403-6.2259-4.134-0.58111-8.7067 0.4527-7.1719-2.6421s5.608-3.815 9.7702-3.3402c6.9485 0.7928 13.468 2.7305 19.403 6.2259 3.3946 1.9991 5.7643 4.7375 4.2295 7.8323z" fill="#803300"/>
  <path d="m2294.1 254.39c-0.8419 3.3502-3.2842 0.7952-7.0651-0.3565-11.779-3.588-15.278-2.333-20.283-1.9592-4.1631 0.31091-8.4115 2.2931-7.5697-1.0572s4.669-4.9199 8.837-5.3407c6.9582-0.70231 13.74-0.19461 20.283 1.9593 3.742 1.2319 6.6396 3.404 5.7977 6.7543z" fill="#803300"/>
 </g>
 <path d="m179.35 285.59c-14.479 0-30.217 11.961-29.588 19.515s25.81 39.03 31.476 39.03 27.699-30.847 27.069-39.66-19.515-19.515-28.958-18.886z" fill="url(#f)" fill-rule="evenodd" stroke="#000" stroke-width="5"/>
 <path d="m313.69 284.56c-48.111 17.3 42.588 102.12-37.819 161.19-22.626 16.622 57.868 2.0908 81.723-66.585 23.198-66.786 1.1324-107.54-43.904-94.607z" fill="url(#e)" fill-rule="evenodd" stroke="#000" stroke-width="5"/>
</svg>
